<?xml version="1.0" encoding="UTF-8"?>
<svg xmlns="http://www.w3.org/2000/svg" viewBox="0 0 201.6 1203.57">
  <g id="_레이어_2" data-name="레이어 2">
    <path d="m124.2,1203.57H12.03V3.57h112.17l60.9,300v600l-60.9,300Z" fill="#76767a"/>
    <line x1="67.33" y1="436.78" x2="101.6" y2="436.78" fill="none" stroke="#fff" stroke-miterlimit="10" stroke-width="5"/>
    <line x1="76.57" y1="269.98" x2="93.71" y2="269.98" fill="none" stroke="#fff" stroke-miterlimit="10" stroke-width="10"/>
    <line x1="76.57" y1="18.96" x2="93.71" y2="18.96" fill="none" stroke="#fff" stroke-miterlimit="10" stroke-width="10"/>
    <line x1="76.57" y1="144.47" x2="93.71" y2="144.47" fill="none" stroke="#fff" stroke-miterlimit="10" stroke-width="10"/>
    <line x1="67.33" y1="207.23" x2="101.6" y2="207.23" fill="none" stroke="#fff" stroke-miterlimit="10" stroke-width="5"/>
    <line x1="67.33" y1="81.72" x2="101.6" y2="81.72" fill="none" stroke="#fff" stroke-miterlimit="10" stroke-width="5"/>
    <line x1="67.33" y1="770.36" x2="101.6" y2="770.36" fill="none" stroke="#fff" stroke-miterlimit="10" stroke-width="5"/>
    <line x1="76.57" y1="937.15" x2="93.71" y2="937.15" fill="none" stroke="#fff" stroke-miterlimit="10" stroke-width="10"/>
    <line x1="76.57" y1="1188.17" x2="93.71" y2="1188.17" fill="none" stroke="#fff" stroke-miterlimit="10" stroke-width="10"/>
    <line x1="76.57" y1="1062.66" x2="93.71" y2="1062.66" fill="none" stroke="#fff" stroke-miterlimit="10" stroke-width="10"/>
    <line x1="67.33" y1="999.91" x2="101.6" y2="999.91" fill="none" stroke="#fff" stroke-miterlimit="10" stroke-width="5"/>
    <line x1="67.33" y1="1125.42" x2="101.6" y2="1125.42" fill="none" stroke="#fff" stroke-miterlimit="10" stroke-width="5"/>
    <text transform="translate(33.86 38.08)" fill="#fff" font-family="BMDoHyeon-OTF-KSCpc-EUC-H, &apos;BM Dohyeon&apos;" font-size="36"><tspan x="0" y="0">6</tspan></text>
    <text transform="translate(35.41 154.15)" fill="#fff" font-family="BMDoHyeon-OTF-KSCpc-EUC-H, &apos;BM Dohyeon&apos;" font-size="36"><tspan x="0" y="0">2</tspan></text>
    <text transform="translate(38.72 279.25)" fill="#fff" font-family="BMDoHyeon-OTF-KSCpc-EUC-H, &apos;BM Dohyeon&apos;" font-size="36"><tspan x="0" y="0">1</tspan></text>
    <text transform="translate(33.86 1187.78)" fill="#fff" font-family="BMDoHyeon-OTF-KSCpc-EUC-H, &apos;BM Dohyeon&apos;" font-size="36"><tspan x="0" y="0">6</tspan></text>
    <text transform="translate(35.41 1070.48)" fill="#fff" font-family="BMDoHyeon-OTF-KSCpc-EUC-H, &apos;BM Dohyeon&apos;" font-size="36"><tspan x="0" y="0">2</tspan></text>
    <text transform="translate(38.72 945.89)" fill="#fff" font-family="BMDoHyeon-OTF-KSCpc-EUC-H, &apos;BM Dohyeon&apos;" font-size="36"><tspan x="0" y="0">1</tspan></text>
  </g>
  <g id="_레이어_3" data-name="레이어 3">
    <line x1="97.42" y1="603.57" x2="0" y2="603.57" fill="none" stroke="#fefe03" stroke-miterlimit="10" stroke-width="10"/>
  </g>
</svg>